<svg width="1200" height="402" fill="none" xmlns="http://www.w3.org/2000/svg"><mask id="a" style="mask-type:alpha" maskUnits="userSpaceOnUse" x="0" y="0" width="1200" height="402"><rect width="1200" height="402" rx="16" fill="#020738"/></mask><g mask="url(#a)"><circle cx="541" cy="362" r="3" fill="#316AFF"/><path d="M55.188 44.188c-1-1-5.688-1.626-5.688-1.626s4.75-.812 5.75-1.874c1-1 1.688-5.688 1.688-5.688s.937 4.625 1.937 5.625 5.625 1.812 5.625 1.812-4.5.875-5.5 1.875S57.062 50 57.062 50s-.812-4.813-1.874-5.813ZM166.342 307.475c-1.467-1.467-8.342-2.383-8.342-2.383s6.967-1.192 8.433-2.75c1.467-1.467 2.475-8.342 2.475-8.342s1.375 6.783 2.842 8.25c1.467 1.467 8.25 2.658 8.25 2.658s-6.6 1.284-8.067 2.75c-1.466 1.467-2.841 8.342-2.841 8.342s-1.192-7.058-2.75-8.525Z" fill="#F2F2F2"/></g><path d="M1145.15 96.955c-18.69-3.738-61-9.419-86.11-5.83M1055 79.912c10.61-3.439 35.25-13.635 48.89-26.911" stroke="#fff" stroke-width="3.084" stroke-linecap="round"/><path d="m1134 306 6 6-6 6-6-6 6-6Z" fill="#F481FE"/></svg>