<svg width="180" height="55" fill="none" xmlns="http://www.w3.org/2000/svg"><rect width="180" height="55" rx="11" fill="#1F1F1F"/><path fill-rule="evenodd" clip-rule="evenodd" d="M59.122 16.959c0 .962-.284 1.727-.851 2.299-.645.68-1.484 1.02-2.516 1.02-.99 0-1.83-.345-2.521-1.035-.693-.689-1.038-1.544-1.038-2.563 0-1.02.345-1.875 1.038-2.564.69-.69 1.532-1.034 2.52-1.034.49 0 .96.097 1.406.289.447.192.804.448 1.072.769l-.603.606c-.453-.544-1.078-.818-1.874-.818-.722 0-1.345.255-1.872.765-.526.51-.789 1.172-.789 1.987 0 .814.263 1.476.79 1.986.526.51 1.149.764 1.87.764.766 0 1.403-.256 1.914-.769.331-.334.523-.798.573-1.395h-2.486v-.827h3.319c.032.18.048.352.048.52Z" fill="#fff"/><path clip-rule="evenodd" d="M59.122 16.959c0 .962-.284 1.727-.851 2.299-.645.68-1.484 1.02-2.516 1.02-.99 0-1.83-.345-2.521-1.035-.693-.689-1.038-1.544-1.038-2.563 0-1.02.345-1.875 1.038-2.564.69-.69 1.532-1.034 2.52-1.034.49 0 .96.097 1.406.289.447.192.804.448 1.072.769l-.603.606c-.453-.544-1.078-.818-1.874-.818-.722 0-1.345.255-1.872.765-.526.51-.789 1.172-.789 1.987 0 .814.263 1.476.79 1.986.526.51 1.149.764 1.87.764.766 0 1.403-.256 1.914-.769.331-.334.523-.798.573-1.395h-2.486v-.827h3.319c.032.18.048.352.048.52Z" stroke="#fff" stroke-width=".5"/><path fill-rule="evenodd" clip-rule="evenodd" d="M64.384 14.082h-3.12v2.183h2.813v.828h-2.812v2.183h3.119v.847h-4v-6.887h4v.846Z" fill="#fff"/><path clip-rule="evenodd" d="M64.384 14.082h-3.12v2.183h2.813v.828h-2.812v2.183h3.119v.847h-4v-6.887h4v.846Z" stroke="#fff" stroke-width=".5"/><path fill-rule="evenodd" clip-rule="evenodd" d="M68.096 20.123h-.88v-6.041h-1.914v-.846h4.707v.846h-1.913v6.041Z" fill="#fff"/><path clip-rule="evenodd" d="M68.096 20.123h-.88v-6.041h-1.914v-.846h4.707v.846h-1.913v6.041Z" stroke="#fff" stroke-width=".5"/><path fill-rule="evenodd" clip-rule="evenodd" d="M73.416 20.123h.88v-6.887h-.88v6.887Z" fill="#fff"/><path clip-rule="evenodd" d="M73.416 20.123h.88v-6.887h-.88v6.887Z" stroke="#fff" stroke-width=".5"/><path fill-rule="evenodd" clip-rule="evenodd" d="M78.2 20.123h-.88v-6.041h-1.914v-.846h4.707v.846H78.2v6.041Z" fill="#fff"/><path clip-rule="evenodd" d="M78.2 20.123h-.88v-6.041h-1.914v-.846h4.707v.846H78.2v6.041Z" stroke="#fff" stroke-width=".5"/><path fill-rule="evenodd" clip-rule="evenodd" d="M84.652 18.656a2.506 2.506 0 0 0 1.86.774c.734 0 1.355-.257 1.862-.774.507-.516.761-1.175.761-1.976 0-.801-.254-1.461-.761-1.977a2.509 2.509 0 0 0-1.861-.774c-.735 0-1.355.258-1.861.774s-.76 1.176-.76 1.977c0 .801.254 1.46.76 1.976Zm4.373.577c-.674.696-1.511 1.044-2.512 1.044-1.002 0-1.839-.348-2.511-1.044-.674-.696-1.01-1.547-1.01-2.553 0-1.007.336-1.858 1.01-2.554.672-.696 1.51-1.043 2.51-1.043.996 0 1.83.348 2.508 1.047.676.7 1.014 1.549 1.014 2.55 0 1.006-.337 1.857-1.01 2.553Z" fill="#fff"/><path d="m84.652 18.656-.179.175.179-.175Zm3.722-3.953-.179.175.179-.175Zm-3.722 0-.179-.175.179.175Zm4.373 4.53.18.173-.18-.173Zm-5.023 0 .18-.174-.18.174Zm0-5.107.18.174-.18-.174Zm5.018.005.18-.174-.18.173Zm-4.547 4.7c.555.566 1.24.849 2.04.849v-.5a2.256 2.256 0 0 1-1.683-.699l-.357.35Zm2.04.849c.798 0 1.484-.283 2.04-.849l-.358-.35a2.258 2.258 0 0 1-1.682.699v.5Zm2.04-.849c.557-.568.832-1.292.832-2.151h-.5c0 .743-.234 1.337-.69 1.801l.357.35Zm.832-2.151c0-.86-.275-1.585-.833-2.152l-.357.35c.456.464.69 1.059.69 1.802h.5Zm-.833-2.152a2.758 2.758 0 0 0-2.04-.85v.5c.668 0 1.224.232 1.683.7l.357-.35Zm-2.04-.85c-.8 0-1.484.285-2.039.85l.357.35c.46-.467 1.015-.7 1.683-.7v-.5Zm-2.039.85c-.556.567-.832 1.293-.832 2.152h.5c0-.743.234-1.338.689-1.802l-.357-.35Zm-.832 2.152c0 .86.276 1.583.832 2.151l.357-.35c-.455-.464-.689-1.058-.689-1.801h-.5Zm5.204 2.379c-.625.646-1.396.968-2.332.968v.5c1.066 0 1.969-.373 2.691-1.12l-.36-.348Zm-2.332.968c-.937 0-1.708-.322-2.331-.968l-.36.347c.721.748 1.624 1.121 2.69 1.121v-.5Zm-2.331-.968c-.627-.647-.94-1.434-.94-2.38h-.5c0 1.07.36 1.983 1.08 2.728l.36-.348Zm-.94-2.38c0-.944.313-1.732.94-2.38l-.36-.347c-.72.744-1.08 1.66-1.08 2.728h.5Zm.94-2.38c.623-.644 1.394-.966 2.33-.966v-.5c-1.066 0-1.968.373-2.69 1.12l.36.347Zm2.33-.966c.93 0 1.7.322 2.328.971l.36-.347c-.726-.75-1.626-1.125-2.687-1.125v.5Zm2.328.971c.63.651.944 1.438.944 2.376h.5c0-1.064-.362-1.976-1.084-2.723l-.36.347Zm.944 2.376c0 .944-.314 1.732-.94 2.379l.36.347c.72-.744 1.08-1.657 1.08-2.726h-.5Z" fill="#fff"/><path fill-rule="evenodd" clip-rule="evenodd" d="M91.269 20.123v-6.887h1.071l3.33 5.357h.038l-.039-1.327v-4.03h.882v6.887h-.92l-3.482-5.617h-.038l.038 1.328v4.289h-.88Z" fill="#fff"/><path clip-rule="evenodd" d="M91.269 20.123v-6.887h1.071l3.33 5.357h.038l-.039-1.327v-4.03h.882v6.887h-.92l-3.482-5.617h-.038l.038 1.328v4.289h-.88Z" stroke="#fff" stroke-width=".5"/><path fill-rule="evenodd" clip-rule="evenodd" d="M127.075 39.636h2.129V25.287h-2.129v14.35Zm19.189-9.18-2.442 6.221h-.073l-2.535-6.221h-2.295l3.802 8.695-2.168 4.836h2.222l5.858-13.531h-2.369Zm-12.083 7.55c-.697 0-1.67-.35-1.67-1.218 0-1.107 1.212-1.532 2.259-1.532.935 0 1.377.203 1.946.48-.166 1.329-1.304 2.27-2.535 2.27Zm.258-7.864c-1.543 0-3.14.683-3.801 2.197l1.891.794c.404-.794 1.156-1.052 1.946-1.052 1.102 0 2.222.664 2.241 1.845v.148c-.386-.22-1.213-.553-2.222-.553-2.039 0-4.114 1.126-4.114 3.23 0 1.92 1.672 3.157 3.544 3.157 1.432 0 2.223-.646 2.717-1.404h.075v1.11h2.057v-5.502c0-2.549-1.893-3.97-4.334-3.97Zm-13.167 2.06h-3.03v-4.918h3.03c1.593 0 2.497 1.326 2.497 2.459 0 1.112-.904 2.46-2.497 2.46Zm-.054-6.915h-5.105v14.35h2.129V34.2h2.976c2.361 0 4.682-1.718 4.682-4.457 0-2.738-2.321-4.456-4.682-4.456ZM93.381 38.01c-1.472 0-2.704-1.24-2.704-2.941 0-1.72 1.232-2.978 2.704-2.978 1.452 0 2.593 1.258 2.593 2.978 0 1.701-1.14 2.94-2.593 2.94Zm2.446-6.75h-.073c-.479-.574-1.4-1.091-2.557-1.091-2.428 0-4.655 2.145-4.655 4.9 0 2.736 2.227 4.863 4.655 4.863 1.158 0 2.078-.517 2.556-1.109h.074v.702c0 1.868-.994 2.866-2.593 2.866-1.306 0-2.116-.942-2.447-1.738l-1.858.777c.534 1.295 1.95 2.885 4.305 2.885 2.501 0 4.617-1.48 4.617-5.085v-8.766h-2.024v.795Zm3.496 8.376h2.132V25.287h-2.132v14.35Zm5.278-4.733c-.055-1.886 1.453-2.848 2.538-2.848.847 0 1.564.426 1.804 1.035l-4.342 1.813Zm6.622-1.628c-.405-1.09-1.637-3.106-4.157-3.106-2.502 0-4.581 1.979-4.581 4.881 0 2.737 2.061 4.882 4.819 4.882 2.226 0 3.514-1.368 4.048-2.163l-1.656-1.11c-.552.813-1.306 1.35-2.392 1.35-1.084 0-1.857-.499-2.353-1.479l6.492-2.7-.22-.555Zm-51.73-1.608v2.07h4.929c-.146 1.166-.533 2.016-1.121 2.607-.718.722-1.84 1.518-3.808 1.518-3.036 0-5.408-2.46-5.408-5.511s2.372-5.51 5.408-5.51c1.637 0 2.833.646 3.715 1.479l1.454-1.462c-1.233-1.183-2.87-2.09-5.169-2.09-4.158 0-7.653 3.404-7.653 7.583 0 4.18 3.495 7.581 7.653 7.581 2.244 0 3.936-.74 5.26-2.127 1.361-1.368 1.785-3.29 1.785-4.845 0-.48-.037-.924-.111-1.293h-6.934Zm12.648 6.343c-1.47 0-2.74-1.222-2.74-2.96 0-1.757 1.27-2.959 2.74-2.959 1.472 0 2.742 1.202 2.742 2.96 0 1.737-1.27 2.959-2.742 2.959Zm0-7.841c-2.685 0-4.874 2.052-4.874 4.881 0 2.812 2.189 4.882 4.874 4.882 2.687 0 4.875-2.07 4.875-4.882 0-2.829-2.188-4.881-4.875-4.881Zm10.634 7.84c-1.471 0-2.74-1.22-2.74-2.959 0-1.757 1.269-2.959 2.74-2.959 1.472 0 2.74 1.202 2.74 2.96 0 1.737-1.268 2.959-2.74 2.959Zm0-7.84c-2.685 0-4.874 2.052-4.874 4.881 0 2.812 2.19 4.882 4.874 4.882 2.686 0 4.874-2.07 4.874-4.882 0-2.829-2.188-4.881-4.874-4.881Z" fill="#fff"/><path opacity=".6" fill-rule="evenodd" clip-rule="evenodd" d="M16.897 13.854c-.332.353-.529.902-.529 1.613v25.385c0 .712.197 1.259.529 1.613l.084.082 14.145-14.22v-.335L16.981 13.77l-.084.084Z" fill="#fff"/><path opacity=".9" fill-rule="evenodd" clip-rule="evenodd" d="m35.84 33.069-4.714-4.742v-.335l4.716-4.742.106.06 5.587 3.192c1.595.911 1.595 2.403 0 3.315l-5.587 3.19-.107.062Z" fill="#fff"/><path opacity=".8" fill-rule="evenodd" clip-rule="evenodd" d="m35.948 33.008-4.822-4.849-14.23 14.306c.527.56 1.395.628 2.374.07l16.678-9.527Z" fill="#fff"/><path opacity=".7" fill-rule="evenodd" clip-rule="evenodd" d="M35.948 23.31 19.27 13.785c-.979-.56-1.847-.49-2.374.07l14.23 14.305 4.822-4.848Z" fill="#fff"/><path fill-rule="evenodd" clip-rule="evenodd" d="M35.842 32.9 19.27 42.368c-.928.528-1.756.493-2.288.011l-.085.086.083.083.002-.001c.532.482 1.36.517 2.288-.012l16.678-9.528-.106-.107ZM16.897 42.297c-.332-.353-.529-.902-.529-1.612v.167c0 .71.197 1.26.529 1.613l.084-.085-.084-.083ZM41.535 29.649 35.842 32.9l.106.107 5.587-3.19c.798-.457 1.196-1.057 1.196-1.657-.067.543-.473 1.075-1.197 1.489Z" fill="#1F1F1F"/><path fill-rule="evenodd" clip-rule="evenodd" d="M19.27 13.951 41.535 26.67c.723.413 1.129.946 1.196 1.49.001-.6-.398-1.202-1.197-1.657L19.27 13.784c-1.597-.912-2.902-.154-2.902 1.682v.168c0-1.837 1.305-2.594 2.902-1.683Z" fill="#fff"/></svg>