<svg width="151" height="70" fill="none" xmlns="http://www.w3.org/2000/svg"><path d="m63.945 19.314.186-.982-.01-.002-.01-.002-.166.986Zm14.274 21.773-.582-.813.582.813Zm72.755-11.014-2.571-11.257-8.463 7.855 11.034 3.402ZM2.089 69.677c1.98-12.55 6.826-26.699 16.437-36.794 9.56-10.04 23.93-16.176 45.252-12.583l.333-1.972c-21.926-3.695-36.98 2.618-47.033 13.176C7.078 42.008 2.126 56.606.113 69.366l1.976.311Zm61.67-49.38c10.315 1.957 15.815 5.65 17.728 9.348.939 1.816 1.041 3.672.41 5.454-.638 1.804-2.054 3.597-4.26 5.175l1.163 1.627c2.446-1.75 4.174-3.849 4.983-6.134.817-2.308.671-4.738-.52-7.04-2.347-4.538-8.637-8.404-19.132-10.395l-.373 1.965Zm13.878 19.977c-3.752 2.684-7.47 2.893-10.648 1.597-3.223-1.314-5.994-4.22-7.655-7.934-3.303-7.386-2.11-17.715 8.492-24.07L66.798 8.15c-11.564 6.932-12.96 18.395-9.29 26.602 1.827 4.084 4.933 7.424 8.726 8.97 3.838 1.565 8.276 1.246 12.566-1.822l-1.163-1.627Zm-9.81-30.408c20.08-12.038 50.86-10.678 76.328 14.328l1.401-1.427C119.505-2.81 87.738-4.403 66.798 8.151l1.028 1.715Z" fill="url(#a)" fill-opacity=".8"/><defs><radialGradient id="a" cx="0" cy="0" r="1" gradientUnits="userSpaceOnUse" gradientTransform="matrix(-164.50027 44.9991 -62.57535 -228.75264 167 20)"><stop stop-color="#F580FF"/><stop offset="1" stop-color="#6C2FFF"/></radialGradient></defs></svg>