<svg width="61" height="60" fill="none" xmlns="http://www.w3.org/2000/svg"><path d="M50.564 9.926c-5.234-5.235-13.75-5.235-18.985 0L10.436 31.069c-5.247 5.246-5.249 13.738-.001 18.986 5.235 5.235 13.752 5.234 18.987 0a583847.9 583847.9 0 0 0 21.143-21.143c5.247-5.247 5.247-13.739 0-18.986ZM37.951 37.547c-.085.089-1.513 1.515-10.518 10.52-4.138 4.138-10.872 4.138-15.01 0a10.607 10.607 0 0 1 .001-15.01l4.923-4.922a13.505 13.505 0 0 0 .397 5.337l-2.753 2.753a6.514 6.514 0 0 0-1.92 4.637c0 5.797 7.06 8.77 11.193 4.636.47-.468 10.275-10.274 10.727-10.726 3.698-3.732 1.7-10.146-3.502-11.067l3.221-3.221c6.371 2.87 8.567 11.343 3.24 17.063Zm-19.052-1.252a13.505 13.505 0 0 0 5.296 5.296l-1.92 1.919a3.75 3.75 0 0 1-5.295 0 3.743 3.743 0 0 1 0-5.296l1.919-1.92Zm8.819-3.523a3.75 3.75 0 0 1-.018-5.278 3.752 3.752 0 0 1 5.282.013A3.752 3.752 0 0 1 33 32.786a3.752 3.752 0 0 1-5.282-.014Zm9.087-14.383 1.618-1.619a3.75 3.75 0 0 1 5.296 0 3.743 3.743 0 0 1 0 5.296l-1.618 1.619a13.506 13.506 0 0 0-5.296-5.296Zm6.85 13.456c.222-1.777.09-3.606-.398-5.339l2.451-2.451a6.553 6.553 0 0 0 0-9.273 6.564 6.564 0 0 0-9.273 0L25.709 25.507c-3.7 3.73-1.7 10.146 3.502 11.067l-2.922 2.923c-6.213-2.804-8.674-11.152-3.265-17.036.093-.1.116-.12 10.543-10.547 4.138-4.137 10.87-4.138 15.009 0a10.607 10.607 0 0 1 0 15.01l-4.921 4.921ZM8.165 23.739l2.745-.255a1.406 1.406 0 1 0-.26-2.8l-2.745.255a1.406 1.406 0 0 0 .26 2.8ZM22.595 11.678c.718 0 1.331-.548 1.399-1.277l.255-2.745a1.406 1.406 0 0 0-2.8-.26l-.255 2.746a1.406 1.406 0 0 0 1.401 1.536ZM13.444 14.669a1.406 1.406 0 1 0 1.989-1.989l-1.761-1.76a1.406 1.406 0 1 0-1.989 1.988l1.761 1.761ZM52.834 36.242l-2.745.255a1.406 1.406 0 1 0 .26 2.8l2.744-.254a1.406 1.406 0 1 0-.26-2.8ZM38.537 48.309a1.405 1.405 0 0 0-1.53 1.27l-.255 2.745a1.406 1.406 0 0 0 2.8.26l.255-2.745a1.406 1.406 0 0 0-1.27-1.53ZM47.557 45.312a1.406 1.406 0 0 0-1.989 1.989l1.761 1.76c.274.275.634.412.994.412 1.242 0 1.883-1.511.995-2.4l-1.761-1.76Z" fill="#111"/></svg>