<svg width="61" height="60" fill="none" xmlns="http://www.w3.org/2000/svg"><path d="M17.1 19.47c.027 5.275 2.53 6.228 4.26 14.667a4.291 4.291 0 0 0-2.922 4.063 4.27 4.27 0 0 0 1.114 2.88c-2.495 2.745-.538 7.167 3.172 7.167h.35c.654 3.255 3.535 5.714 6.98 5.714h.89c3.444 0 6.325-2.459 6.98-5.714h.35c3.709 0 5.666-4.422 3.17-7.167 2.078-2.285 1.123-5.955-1.803-6.942a40.635 40.635 0 0 1 2.997-9.061c2.319-4.952 1.455-11.062-2.699-15.185-8.415-8.356-22.9-2.378-22.84 9.578Zm13.844 31.679h-.89a4.316 4.316 0 0 1-4.072-2.902h9.033a4.315 4.315 0 0 1-4.071 2.902Zm7.33-5.714h-15.55a1.475 1.475 0 0 1 0-2.949h15.55a1.475 1.475 0 0 1 0 2.948Zm1.473-7.235c0 .815-.665 1.474-1.474 1.474h-15.55A1.475 1.475 0 0 1 21.25 38.2c0-.812.66-1.474 1.474-1.474h15.55c.811 0 1.473.66 1.473 1.474ZM29.092 20.36h-.984a.985.985 0 0 1-.985-.984v-.638a.985.985 0 0 1 1.97 0v1.622Zm7.725 13.554h-4.912V23.173h3.281a1.406 1.406 0 1 0 0-2.813h-3.281v-1.622a3.801 3.801 0 0 0-3.797-3.796 3.801 3.801 0 0 0-3.797 3.796v.638a3.801 3.801 0 0 0 3.797 3.797h.984v10.74h-4.91c-1.76-8.955-4.245-9.9-4.27-14.457-.048-9.445 11.398-14.171 18.045-7.568a10.512 10.512 0 0 1 3.128 7.511c0 4.578-2.497 5.53-4.268 14.515ZM10.483 26.193l-3.377 2.34a1.406 1.406 0 1 0 1.601 2.312l3.378-2.34a1.406 1.406 0 1 0-1.602-2.312ZM12.085 14.596l-3.378-2.34a1.406 1.406 0 0 0-1.601 2.312l3.377 2.34a1.406 1.406 0 0 0 1.602-2.312ZM49.716 17.159c.584 0 .529-.063 4.178-2.59a1.406 1.406 0 0 0-1.602-2.313l-3.378 2.34c-1.132.785-.569 2.563.802 2.563ZM53.894 28.533l-3.378-2.34a1.406 1.406 0 1 0-1.602 2.312l3.378 2.34a1.406 1.406 0 0 0 1.602-2.312Z" fill="#111"/></svg>