<svg width="61" height="60" fill="none" xmlns="http://www.w3.org/2000/svg"><rect x=".5" width="60" height="60" rx="16" fill="#316AFF"/><g clip-path="url(#a)" stroke="#fff" stroke-width="2.5" stroke-miterlimit="10" stroke-linecap="round" stroke-linejoin="round"><path d="M43.417 28.562v6.459c0 4.52-2.584 6.458-6.459 6.458H24.042c-3.875 0-6.459-1.937-6.459-6.458v-9.042c0-4.52 2.584-6.458 6.459-6.458h9.041"/><path d="m24.042 26.625 4.043 3.23c1.33 1.058 3.513 1.058 4.843 0l1.525-1.215M40.187 25.333a3.23 3.23 0 1 0 0-6.458 3.23 3.23 0 0 0 0 6.458Z"/></g><defs><clipPath id="a"><path fill="#fff" transform="translate(16.5 16)" d="M0 0h28v28H0z"/></clipPath></defs></svg>