<svg width="84" height="83" fill="none" xmlns="http://www.w3.org/2000/svg"><path d="M54.803 8H28.416c-3.092 0-5.635 2.543-5.635 5.636v55.729c0 3.092 2.542 5.635 5.635 5.635h26.456c3.092 0 5.635-2.543 5.635-5.635V13.703C60.436 10.543 57.963 8 54.802 8Zm-26.387 2.2h26.456a3.52 3.52 0 0 1 3.504 3.504v3.161H24.911v-3.161c0-1.993 1.58-3.505 3.505-3.505Zm29.892 8.795v44.391H24.91V18.995h33.397Zm-3.505 53.943H28.416a3.52 3.52 0 0 1-3.505-3.505v-3.917h33.466v3.917c-.069 1.924-1.65 3.505-3.573 3.505Z" fill="#111" stroke="#111"/><path d="M43.877 69.09a2.268 2.268 0 1 1-4.536 0 2.268 2.268 0 0 1 4.536 0Z" fill="#111"/><path d="M43.877 69.09a2.268 2.268 0 1 1-4.536 0 2.268 2.268 0 0 1 4.536 0" stroke="#111"/><path d="M43.74 69.09a2.268 2.268 0 1 1-4.536 0 2.268 2.268 0 0 1 4.535 0Z" fill="#111"/><path d="M43.74 69.09a2.268 2.268 0 1 1-4.536 0 2.268 2.268 0 0 1 4.535 0" stroke="#111"/><path d="M37.487 12.81c-.55 0-.894.413-.894.894a.91.91 0 0 0 .894.893h8.04a.91.91 0 0 0 .893-.893.91.91 0 0 0-.893-.893h-8.04ZM74.112 27.172h-1.03v-1.03a.616.616 0 0 0-.618-.619.616.616 0 0 0-.619.619v1.03h-1.03a.616.616 0 0 0-.619.619c0 .343.275.618.619.618h1.03v1.03c0 .344.275.619.618.619a.616.616 0 0 0 .619-.618v-1.031h1.03a.616.616 0 0 0 .619-.618c0-.344-.206-.619-.619-.619ZM18.59 53.628h-1.031v-1.03a.615.615 0 0 0-.618-.618.616.616 0 0 0-.619.618v1.03h-1.03a.616.616 0 0 0-.619.619c0 .343.275.618.619.618h1.03v1.03c0 .344.275.619.619.619a.616.616 0 0 0 .618-.618v-1.03h1.03a.616.616 0 0 0 .619-.62c.068-.343-.206-.618-.618-.618ZM17.215 20.3h-1.718v-1.717a.91.91 0 0 0-.893-.893.91.91 0 0 0-.894.893V20.3h-1.786a.91.91 0 0 0-.894.893.91.91 0 0 0 .894.894h1.718v1.718a.91.91 0 0 0 .893.893.91.91 0 0 0 .894-.893v-1.718h1.717a.91.91 0 0 0 .894-.894c.137-.48-.275-.893-.825-.893Z" fill="#111" stroke="#111"/><path d="M12.336 39.13a1.168 1.168 0 1 1-2.336 0 1.168 1.168 0 0 1 2.336 0Z" fill="#111"/><path d="M12.336 39.13a1.168 1.168 0 1 1-2.336 0 1.168 1.168 0 0 1 2.336 0" stroke="#111"/><path d="M69.164 64.417a1.168 1.168 0 1 1-2.336 0 1.168 1.168 0 0 1 2.336 0ZM68.478 18.377a1.512 1.512 0 1 1-3.024 0 1.512 1.512 0 0 1 3.024 0ZM51.092 37.549c-2.542-2.543-5.84-3.917-9.414-3.917-3.573 0-6.871 1.374-9.414 3.917-.481.48-.481 1.168 0 1.649.206.206.481.344.825.344.274 0 .618-.138.824-.344a11.075 11.075 0 0 1 7.834-3.23c2.954 0 5.703 1.168 7.834 3.23.206.206.48.344.824.344.275 0 .618-.138.825-.344.344-.412.344-1.168-.138-1.65Z" fill="#111" stroke="#111"/><path d="M41.678 39.335c-1.856 0-3.573.688-4.88 1.993a1.138 1.138 0 0 0-.343.824c0 .275.138.618.344.825.206.206.481.343.824.343.275 0 .619-.137.825-.343.893-.894 1.992-1.306 3.23-1.306 1.236 0 2.405.481 3.229 1.374.206.206.481.344.825.344.274 0 .618-.138.824-.344.206-.206.344-.481.344-.824 0-.275-.138-.619-.344-.825-1.305-1.374-3.092-2.06-4.878-2.06ZM41.61 44.901c-.962 0-1.718.756-1.718 1.718 0 .481.206.894.48 1.237.345.343.757.481 1.237.481.962 0 1.718-.756 1.718-1.718s-.755-1.718-1.718-1.718Z" fill="#111" stroke="#111"/></svg>