<svg width="84" height="83" fill="none" xmlns="http://www.w3.org/2000/svg"><path d="M57.197 8H30.825a5.597 5.597 0 0 0-5.63 5.63v55.74a5.597 5.597 0 0 0 5.63 5.63h26.444a5.597 5.597 0 0 0 5.63-5.63V13.63C62.83 10.495 60.333 8 57.197 8Zm-26.372 2.138h26.444a3.498 3.498 0 0 1 3.492 3.493v3.136h-33.5v-3.136c0-1.924 1.568-3.493 3.564-3.493Zm29.865 8.767v44.406H27.261V18.905h33.43Zm-3.493 53.957H30.825a3.498 3.498 0 0 1-3.493-3.492v-3.92h33.43v3.92c-.072 1.853-1.64 3.492-3.565 3.492Z" fill="#111" stroke="#111"/><path d="M46.22 69.013a2.21 2.21 0 1 1-4.419 0 2.21 2.21 0 0 1 4.42 0Z" fill="#111" stroke="#111"/><path d="M46.078 69.013a2.21 2.21 0 1 1-4.42 0 2.21 2.21 0 0 1 4.42 0ZM39.877 12.776c-.499 0-.855.427-.855.855 0 .427.428.855.855.855h8.055c.499 0 .855-.428.855-.855a.867.867 0 0 0-.856-.855h-8.054ZM76.514 27.102h-.998v-.998a.639.639 0 0 0-.642-.641.639.639 0 0 0-.641.641v.998h-.998a.638.638 0 0 0-.641.642c0 .356.285.641.641.641h.998v.998c0 .356.285.641.641.641a.638.638 0 0 0 .642-.641v-.998h.998a.639.639 0 0 0 .641-.641.639.639 0 0 0-.641-.642ZM20.989 53.546h-.998v-.998a.638.638 0 0 0-.642-.641.639.639 0 0 0-.64.641v.998h-.999a.639.639 0 0 0-.641.642c0 .356.285.64.641.64h.998v.999c0 .356.285.641.642.641a.639.639 0 0 0 .64-.641v-.998h.999a.639.639 0 0 0 .641-.642.638.638 0 0 0-.641-.64ZM19.634 20.26h-1.71v-1.711c0-.5-.428-.927-.927-.927-.5 0-.927.428-.927.927v1.71h-1.71c-.5 0-.927.428-.927.927 0 .5.427.927.926.927h1.711v1.711c0 .5.428.927.927.927.5 0 .927-.428.927-.927v-1.71h1.71c.5 0 .927-.428.927-.928a.945.945 0 0 0-.927-.926ZM14.788 39.077a1.212 1.212 0 1 1-2.424 0 1.212 1.212 0 0 1 2.424 0ZM71.595 64.38a1.212 1.212 0 1 1-2.423 0 1.212 1.212 0 0 1 2.423 0ZM70.811 18.264a1.497 1.497 0 1 1-2.993 0 1.497 1.497 0 0 1 2.993 0ZM43.868 34.871H33.106c-.5 0-.855-.427-.855-.926l-.001-9.48c0-.5.428-.927.855-.927h10.763c.5 0 .855.428.855.927v9.48c0 .498-.356.926-.855.926Zm-9.836-1.782h8.98l.001-7.697h-8.98l-.001 7.698ZM44.796 40.716h10.192c.5 0 .855-.427.855-.855 0-.427-.427-.855-.855-.855H44.796c-.5 0-.856.427-.856.855s.356.855.856.855ZM32.892 40.716h5.06c.5 0 .856-.427.856-.855s-.428-.855-.855-.855h-5.061c-.5 0-.855.427-.855.855s.356.855.855.855ZM54.988 25.392h-6.344a.866.866 0 0 1-.855-.856c0-.427.428-.855.855-.855h6.344c.5 0 .855.428.855.855a.866.866 0 0 1-.855.856ZM54.988 30.025h-6.344a.866.866 0 0 1-.855-.855c0-.428.428-.856.855-.856h6.344c.5 0 .855.428.855.855a.866.866 0 0 1-.855.856ZM54.988 34.871h-6.344a.866.866 0 0 1-.855-.855c0-.427.428-.855.855-.855h6.344c.5 0 .855.428.855.855a.867.867 0 0 1-.855.855ZM32.892 46.062h10.192c.5 0 .855-.427.855-.855s-.427-.855-.855-.855H32.892c-.5 0-.855.427-.855.854 0 .428.356.856.855.856ZM49.927 46.062h5.061c.5 0 .855-.428.855-.855 0-.428-.427-.855-.855-.855h-5.06c-.5 0-.856.427-.856.855 0 .427.356.855.855.855ZM44.796 51.408h10.192c.5 0 .855-.428.855-.855 0-.428-.427-.856-.855-.856H44.796c-.5 0-.856.427-.856.855s.356.856.856.856ZM32.892 51.408h5.06c.5 0 .856-.428.856-.855 0-.428-.428-.855-.855-.855h-5.061c-.5 0-.855.427-.855.855 0 .427.356.855.855.855ZM32.892 56.825h10.192c.5 0 .855-.428.855-.855 0-.428-.427-.855-.855-.855H32.892c-.5 0-.855.427-.855.855 0 .427.356.855.855.855ZM49.927 56.825h5.061c.5 0 .855-.428.855-.855 0-.428-.427-.855-.855-.855h-5.06c-.5 0-.856.427-.856.855 0 .427.356.855.855.855Z" fill="#111" stroke="#111"/></svg>