<svg width="180" height="55" fill="none" xmlns="http://www.w3.org/2000/svg"><rect width="180" height="55" rx="11" fill="#1F1F1F"/><path fill-rule="evenodd" clip-rule="evenodd" d="M59.23 14.259a3.15 3.15 0 0 0-2.53-.995h-2.59v7.258h2.59c2.136 0 3.374-1.333 3.374-3.652a3.236 3.236 0 0 0-.844-2.611Zm-2.654 5.236h-1.352V14.29h1.352a2.246 2.246 0 0 1 1.786.733c.458.502.67 1.185.578 1.862a2.3 2.3 0 0 1-.568 1.875 2.24 2.24 0 0 1-1.796.735ZM62.532 15.329a2.605 2.605 0 0 0-1.2 2.452 2.606 2.606 0 0 0 1.198 2.456 2.537 2.537 0 0 0 2.706 0 2.606 2.606 0 0 0 1.198-2.456 2.605 2.605 0 0 0-1.2-2.452 2.537 2.537 0 0 0-2.702 0Zm1.353.57c.924 0 1.451.695 1.451 1.882 0 1.192-.527 1.886-1.451 1.886-.928 0-1.45-.69-1.45-1.886 0-1.187.522-1.882 1.45-1.882Z" fill="#fff"/><path d="M73.218 20.522H72.11l-1.118-4.034h-.085l-1.113 4.034h-1.097l-1.492-5.477h1.083l.97 4.179h.08l1.112-4.18h1.024l1.112 4.18h.085l.964-4.18h1.068l-1.485 5.478ZM75.957 15.044h1.028v.87h.08a1.617 1.617 0 0 1 1.615-.975 1.748 1.748 0 0 1 1.42.563c.364.396.53.938.452 1.474v3.546h-1.067v-3.275c0-.88-.378-1.318-1.168-1.318a1.234 1.234 0 0 0-.96.394c-.25.267-.37.63-.332.994v3.205h-1.068v-5.477ZM82.254 12.906h1.068v7.616h-1.068v-7.615Z" fill="#fff"/><path fill-rule="evenodd" clip-rule="evenodd" d="M86.006 15.329a2.605 2.605 0 0 0-1.2 2.452 2.606 2.606 0 0 0 1.199 2.456 2.537 2.537 0 0 0 2.706 0 2.606 2.606 0 0 0 1.199-2.456 2.605 2.605 0 0 0-1.2-2.452 2.537 2.537 0 0 0-2.704 0Zm1.353.57c.925 0 1.452.695 1.452 1.882 0 1.192-.527 1.886-1.452 1.886-.928 0-1.45-.69-1.45-1.886 0-1.187.522-1.882 1.45-1.882ZM93.046 17.338c-1.287.08-2.012.649-2.012 1.635.001.467.199.912.542 1.225.344.312.802.462 1.261.414a1.814 1.814 0 0 0 1.625-.86h.085v.77h1.028V16.78c0-1.157-.765-1.841-2.122-1.841-1.227 0-2.101.603-2.21 1.544h1.033c.119-.387.532-.609 1.128-.609.73 0 1.108.327 1.108.905v.473l-1.466.086Zm1.466.709v.458c-.024.349-.186.674-.45.9a1.265 1.265 0 0 1-.951.297c-.581 0-1.004-.287-1.004-.78 0-.483.338-.74 1.083-.79l1.322-.085ZM99.224 14.954c-1.367 0-2.246 1.096-2.246 2.827 0 1.735.87 2.831 2.246 2.831a1.873 1.873 0 0 0 1.699-.956h.084v.866h1.024v-7.615h-1.068v3.008h-.08a1.779 1.779 0 0 0-1.66-.961Zm.303 4.688c-.905 0-1.446-.7-1.446-1.861 0-1.152.547-1.856 1.446-1.856.894 0 1.456.719 1.456 1.86 0 1.147-.556 1.857-1.456 1.857ZM107.648 15.329a2.604 2.604 0 0 0-1.2 2.452 2.606 2.606 0 0 0 1.199 2.456 2.537 2.537 0 0 0 2.706 0 2.605 2.605 0 0 0 1.198-2.456 2.604 2.604 0 0 0-1.2-2.452 2.537 2.537 0 0 0-2.703 0Zm1.353.57c.925 0 1.452.695 1.452 1.882 0 1.192-.527 1.886-1.452 1.886-.928 0-1.45-.69-1.45-1.886 0-1.187.522-1.882 1.45-1.882Z" fill="#fff"/><path d="M112.984 15.044h1.028v.87h.08a1.616 1.616 0 0 1 1.614-.975 1.748 1.748 0 0 1 1.42.563c.365.396.531.938.453 1.474v3.546h-1.068v-3.275c0-.88-.378-1.318-1.167-1.318a1.233 1.233 0 0 0-.961.394c-.249.267-.37.63-.331.994v3.205h-1.068v-5.477ZM123.612 13.68v1.39h1.173v.91h-1.173v2.816c0 .574.234.825.765.825.137 0 .272-.008.408-.025v.9a3.474 3.474 0 0 1-.581.056c-1.188 0-1.661-.423-1.661-1.479V15.98h-.858v-.91h.858v-1.39h1.069ZM126.243 12.906h1.058v3.019h.085a1.662 1.662 0 0 1 1.649-.981 1.773 1.773 0 0 1 1.407.577c.36.395.528.932.457 1.464v3.537h-1.069v-3.27c0-.875-.403-1.318-1.157-1.318a1.256 1.256 0 0 0-1 .374c-.263.268-.395.639-.362 1.015v3.199h-1.068v-7.615Z" fill="#fff"/><path fill-rule="evenodd" clip-rule="evenodd" d="M134.78 20.627a2.198 2.198 0 0 0 2.345-1.584h-1.028a1.293 1.293 0 0 1-1.287.664 1.424 1.424 0 0 1-1.064-.462 1.459 1.459 0 0 1-.377-1.107v-.06h3.82V17.7c0-1.72-.908-2.761-2.413-2.761a2.483 2.483 0 0 0-1.893.854 2.55 2.55 0 0 0-.602 2.007 2.508 2.508 0 0 0 .603 2 2.445 2.445 0 0 0 1.896.827Zm1.322-3.35h-2.733a1.408 1.408 0 0 1 .405-1.008c.264-.267.623-.415.996-.41.368-.009.722.14.976.41.254.27.383.637.356 1.009Z" fill="#fff"/><path d="M41.011 27.337a6.035 6.035 0 0 1 2.832-5.05 6.068 6.068 0 0 0-4.796-2.625c-2.017-.214-3.973 1.222-5.002 1.222-1.048 0-2.63-1.2-4.335-1.165a6.377 6.377 0 0 0-5.375 3.318c-2.323 4.073-.59 10.058 1.636 13.35 1.114 1.613 2.415 3.413 4.118 3.35 1.667-.07 2.29-1.076 4.301-1.076 1.993 0 2.577 1.075 4.315 1.035 1.788-.03 2.915-1.62 3.99-3.247a13.402 13.402 0 0 0 1.824-3.761c-2.124-.91-3.505-3.017-3.508-5.351ZM37.73 17.497a5.975 5.975 0 0 0 1.338-4.246 5.933 5.933 0 0 0-3.854 2.019 5.684 5.684 0 0 0-1.374 4.088 4.902 4.902 0 0 0 3.89-1.861Z" fill="#fff"/><path fill-rule="evenodd" clip-rule="evenodd" d="M56.39 35.656h5.688l1.365 4.082h2.45l-5.387-15.104h-2.503l-5.387 15.104h2.41l1.365-4.082Zm5.098-1.884H56.98l2.224-6.626h.062l2.222 6.626ZM72.987 39.853c2.73 0 4.54-2.198 4.54-5.62 0-3.413-1.82-5.623-4.581-5.623a3.85 3.85 0 0 0-3.464 1.947h-.04v-1.831H67.28V43.38h2.233v-5.454h.051a3.679 3.679 0 0 0 3.423 1.926Zm-.63-9.316c1.737 0 2.875 1.466 2.875 3.696 0 2.25-1.138 3.704-2.875 3.704-1.706 0-2.854-1.486-2.854-3.704 0-2.2 1.148-3.696 2.854-3.696ZM84.96 39.853c2.73 0 4.54-2.198 4.54-5.62 0-3.413-1.82-5.623-4.58-5.623a3.849 3.849 0 0 0-3.465 1.947h-.04v-1.831h-2.162V43.38h2.233v-5.454h.051a3.679 3.679 0 0 0 3.423 1.926Zm-.63-9.316c1.737 0 2.875 1.466 2.875 3.696 0 2.25-1.138 3.704-2.875 3.704-1.706 0-2.853-1.486-2.853-3.704 0-2.2 1.147-3.696 2.853-3.696Z" fill="#fff"/><path d="M97.413 35.53c.166 1.497 1.603 2.48 3.567 2.48 1.882 0 3.236-.983 3.236-2.333 0-1.173-.816-1.875-2.75-2.356l-1.934-.471c-2.74-.67-4.011-1.967-4.011-4.072 0-2.606 2.243-4.396 5.429-4.396 3.153 0 5.314 1.79 5.387 4.396h-2.254c-.135-1.508-1.366-2.418-3.165-2.418s-3.03.921-3.03 2.261c0 1.068.787 1.696 2.71 2.177l1.644.409c3.061.733 4.333 1.978 4.333 4.187 0 2.826-2.224 4.596-5.76 4.596-3.31 0-5.543-1.729-5.688-4.46h2.286ZM111.394 26.12v2.605h2.069v1.79h-2.069v6.072c0 .943.414 1.382 1.324 1.382a6.92 6.92 0 0 0 .734-.052v1.78a6.054 6.054 0 0 1-1.24.104c-2.203 0-3.061-.838-3.061-2.973v-6.312h-1.582v-1.79h1.582v-2.607h2.243Z" fill="#fff"/><path fill-rule="evenodd" clip-rule="evenodd" d="M119.82 28.59c-3.144 0-5.159 2.177-5.159 5.642 0 3.475 1.995 5.642 5.159 5.642 3.165 0 5.16-2.167 5.16-5.642 0-3.465-2.006-5.642-5.16-5.642Zm0 1.863c1.809 0 2.885 1.402 2.885 3.78 0 2.386-1.076 3.778-2.885 3.778-1.809 0-2.884-1.392-2.884-3.779 0-2.366 1.075-3.78 2.884-3.78Z" fill="#fff"/><path d="M126.822 28.726h2.129V30.6h.052a2.6 2.6 0 0 1 2.616-1.99c.258 0 .514.028.766.085v2.114a3.09 3.09 0 0 0-1.004-.137 2.237 2.237 0 0 0-1.739.725 2.298 2.298 0 0 0-.588 1.81v6.531h-2.232V28.726Z" fill="#fff"/><path fill-rule="evenodd" clip-rule="evenodd" d="M137.996 39.874c2.46 0 4.383-1.371 4.684-3.37h-2.121a2.458 2.458 0 0 1-2.512 1.548 2.814 2.814 0 0 1-2.158-.89 2.888 2.888 0 0 1-.768-2.229v-.136h7.683v-.775c0-3.339-1.893-5.432-4.902-5.432-3.061 0-5.035 2.24-5.035 5.695 0 3.443 1.964 5.59 5.129 5.59Zm2.574-6.657h-5.439a2.806 2.806 0 0 1 .81-1.982 2.737 2.737 0 0 1 1.961-.813 2.6 2.6 0 0 1 1.937.807c.507.53.771 1.251.731 1.988Z" fill="#fff"/></svg>