<svg width="127" height="65" fill="none" xmlns="http://www.w3.org/2000/svg"><path fill-rule="evenodd" clip-rule="evenodd" d="M6.503 7.022c11.412-4.656 26.134-3.792 40.701.648 21.765 6.637 43.178 21.24 52.623 37.036a.694.694 0 0 1-.238.943.683.683 0 0 1-.943-.238c-9.3-15.55-30.411-29.893-51.846-36.423-14.235-4.343-28.622-5.247-39.776-.69a.687.687 0 0 1-.899-.377.694.694 0 0 1 .378-.899Z" fill="#6C2FFF" stroke="#6C2FFF" stroke-width="2"/><path fill-rule="evenodd" clip-rule="evenodd" d="M115.888 59.523c-5.94-8.87-12.052-16.058-14.435-27.16a.688.688 0 0 1 .531-.819.68.68 0 0 1 .813.524c2.624 12.216 9.867 19.6 16.3 29.863.345.555.009.912-.079.99a.665.665 0 0 1-.72.136 1.708 1.708 0 0 1-.364-.218c-.312-.242-.907-.787-1.197-1.005-.842-.623-1.696-1.22-2.538-1.842-2.408-1.78-4.829-3.528-7.374-5.097-9.514-5.885-17.256-10.757-28.588-8.367a.685.685 0 0 1-.818-.531.688.688 0 0 1 .53-.812c11.722-2.476 19.761 2.456 29.602 8.538 2.575 1.594 5.032 3.362 7.464 5.159.29.218.582.43.873.64Z" fill="#6C2FFF" stroke="#6C2FFF" stroke-width="2"/></svg>