<svg width="178" height="81" fill="none" xmlns="http://www.w3.org/2000/svg"><path d="m81.586 60.883.749.663-.007.007-.007.008-.735-.678ZM79.533 34.93l.039 1-.039-1ZM90.56 66.967l.12.993-.12-.993ZM178 5.499l-9.53 6.52-.881-11.514L178 5.5ZM1.843 58.957c9.252 8.708 21.749 16.925 35.53 19.018 13.705 2.081 28.823-1.87 43.477-17.77l1.47 1.356C67.253 77.91 51.486 82.14 37.073 79.952 22.734 77.774 9.879 69.267.472 60.413l1.371-1.456Zm78.993 1.264c6.956-7.866 9.041-14.154 8.289-18.249-.37-2.01-1.426-3.54-3.016-4.563-1.61-1.034-3.827-1.584-6.537-1.48l-.077-2c3.005-.114 5.656.487 7.695 1.798 2.06 1.324 3.433 3.334 3.902 5.884.923 5.024-1.68 11.932-8.757 19.935l-1.498-1.325Zm-1.264-24.293c-4.61.177-7.676 2.288-9.395 5.26-1.744 3.012-2.154 7.008-1.192 10.96 1.913 7.862 9.182 15.296 21.456 13.826l.237 1.986c-13.386 1.603-21.51-6.603-23.636-15.34-1.058-4.346-.648-8.889 1.403-12.434 2.076-3.587 5.78-6.054 11.05-6.256l.077 1.998ZM90.44 65.974c11.867-1.42 19.338-5.445 24.717-10.726 5.42-5.322 8.776-11.966 12.337-18.824 3.538-6.813 7.268-13.815 13.439-19.505 6.2-5.717 14.792-10.054 27.969-11.726l.252 1.985c-12.827 1.627-21.014 5.816-26.865 11.211-5.88 5.423-9.471 12.121-13.02 18.957-3.525 6.79-7.021 13.743-12.71 19.329-5.73 5.625-13.627 9.818-25.88 11.285l-.239-1.986Z" fill="url(#a)" fill-opacity=".8"/><defs><radialGradient id="a" cx="0" cy="0" r="1" gradientUnits="userSpaceOnUse" gradientTransform="rotate(159.631 93.97 14.572) scale(193.363 276.613)"><stop stop-color="#F580FF"/><stop offset="1" stop-color="#6C2FFF"/></radialGradient></defs></svg>