<svg width="61" height="60" fill="none" xmlns="http://www.w3.org/2000/svg"><path d="M47.906 6H12.094A6.1 6.1 0 0 0 6 12.094v35.812A6.1 6.1 0 0 0 12.094 54h35.812A6.1 6.1 0 0 0 54 47.906V12.094A6.1 6.1 0 0 0 47.906 6ZM12.094 8.813h35.812a3.285 3.285 0 0 1 3.282 3.28v5.321H8.812v-5.32a3.285 3.285 0 0 1 3.282-3.281Zm35.812 42.374H12.094a3.285 3.285 0 0 1-3.281-3.28v-27.68h42.374v27.68a3.285 3.285 0 0 1-3.28 3.28Z" fill="#111"/><path d="M44.844 14.506h1.406a1.406 1.406 0 0 0 0-2.813h-1.406a1.406 1.406 0 1 0 0 2.813ZM13.75 14.506h25.356a1.406 1.406 0 0 0 0-2.813H13.75a1.406 1.406 0 0 0 0 2.813ZM37.365 45.297H22.631a1.406 1.406 0 1 0 0 2.812h14.734a1.406 1.406 0 0 0 0-2.812Z" fill="#111"/><path d="m46.488 43.31.855-.855a1.407 1.407 0 0 0-.63-2.352l-3.293-.883a3.74 3.74 0 0 0 .111-.905v-11.29a3.754 3.754 0 0 0-3.75-3.75H20.22a3.754 3.754 0 0 0-3.75 3.75v11.29a3.754 3.754 0 0 0 3.75 3.75H39.78c.195 0 .386-.015.573-.044l.938 3.502c.282 1.05 1.593 1.39 2.353.63l.855-.854.977.977a1.406 1.406 0 1 0 1.989-1.99l-.978-.976ZM30.015 32.923h-.03a2.064 2.064 0 0 1-2.047-2.062c0-1.137.925-2.062 2.062-2.062 1.137 0 2.062.925 2.062 2.062a2.064 2.064 0 0 1-2.047 2.062Zm-10.734 5.392v-11.29c0-.516.42-.937.938-.937h8.791a4.883 4.883 0 0 0-3.885 4.773c0 1.233.461 2.36 1.219 3.219a6.37 6.37 0 0 0-2.718 5.172H20.22a.938.938 0 0 1-.938-.937Zm7.157.937a3.567 3.567 0 0 1 3.547-3.517h.03a3.567 3.567 0 0 1 3.547 3.517h-7.124Zm9.936 0a6.37 6.37 0 0 0-2.718-5.172 4.853 4.853 0 0 0 1.218-3.219 4.883 4.883 0 0 0-3.884-4.773h8.791c.517 0 .938.42.938.937v11.29c0 .517-.42.937-.938.937h-3.407Z" fill="#111"/></svg>