<svg width="61" height="60" fill="none" xmlns="http://www.w3.org/2000/svg"><rect x=".5" width="60" height="60" rx="16" fill="#316AFF"/><g clip-path="url(#a)" stroke="#fff" stroke-width="2.5" stroke-linecap="round" stroke-linejoin="round"><path d="M38.032 24.462a.753.753 0 0 0-.238 0 3.222 3.222 0 0 1-3.105-3.23c0-1.791 1.44-3.231 3.23-3.231a3.23 3.23 0 0 1 3.23 3.23 3.242 3.242 0 0 1-3.117 3.231ZM36.742 33.578c1.716.287 3.606-.013 4.934-.902 1.765-1.177 1.765-3.105 0-4.283-1.34-.889-3.256-1.189-4.971-.889M22.968 24.462a.753.753 0 0 1 .238 0 3.222 3.222 0 0 0 3.106-3.23c0-1.791-1.44-3.231-3.231-3.231a3.23 3.23 0 0 0-3.23 3.23 3.242 3.242 0 0 0 3.117 3.231ZM24.258 33.578c-1.716.287-3.607-.013-4.934-.902-1.765-1.177-1.765-3.105 0-4.283 1.34-.889 3.256-1.189 4.971-.889M30.519 33.816a.76.76 0 0 0-.238 0 3.222 3.222 0 0 1-3.105-3.231c0-1.79 1.44-3.23 3.23-3.23a3.23 3.23 0 0 1 3.23 3.23c-.012 1.753-1.39 3.18-3.117 3.23ZM26.875 37.76c-1.766 1.177-1.766 3.105 0 4.283 2.003 1.34 5.284 1.34 7.288 0 1.765-1.178 1.765-3.106 0-4.283-1.991-1.327-5.285-1.327-7.288 0Z"/></g><defs><clipPath id="a"><path fill="#fff" transform="translate(16.5 16)" d="M0 0h28v28H0z"/></clipPath></defs></svg>