<svg width="84" height="83" fill="none" xmlns="http://www.w3.org/2000/svg"><path d="M39.276 21.114H27.694a.935.935 0 0 0-.919.918v7.204c0 .494.424.918.919.918h11.582a.935.935 0 0 0 .918-.918v-7.204a.935.935 0 0 0-.918-.918Zm-10.664 7.203v-5.438h9.817v5.438h-9.817ZM54.601 21.114H43.02a.935.935 0 0 0-.918.918v7.204c0 .494.423.918.918.918H54.6a.935.935 0 0 0 .918-.918v-7.204a.935.935 0 0 0-.918-.918Zm-10.664 7.203v-5.438h9.816v5.438h-9.816ZM39.276 32.272H27.694a.935.935 0 0 0-.919.919v7.203c0 .495.424.919.919.919h11.582a.935.935 0 0 0 .918-.919V33.12c0-.495-.424-.848-.918-.848Zm-10.664 7.203v-5.438h9.817v5.438h-9.817ZM39.276 43.713H27.694a.935.935 0 0 0-.919.919v7.203c0 .495.424.919.919.919h11.582a.935.935 0 0 0 .918-.919v-7.203a.935.935 0 0 0-.918-.919Zm-10.664 7.204v-5.438h9.817v5.438h-9.817Z" fill="#111" stroke="#111"/><path d="M43.726 68.926a2.33 2.33 0 1 1-4.661 0 2.33 2.33 0 0 1 4.66 0Z" fill="#111"/><path d="M43.726 68.926a2.33 2.33 0 1 1-4.661 0 2.33 2.33 0 0 1 4.66 0" stroke="#111"/><path d="M43.655 68.926a2.33 2.33 0 1 1-4.661 0 2.33 2.33 0 0 1 4.66 0Z" fill="#111"/><path d="M43.655 68.926a2.33 2.33 0 1 1-4.661 0 2.33 2.33 0 0 1 4.66 0" stroke="#111"/><path d="M37.157 10.944a.935.935 0 0 0-.918.918c0 .495.424.919.919.919h8.333a.935.935 0 0 0 .918-.919.935.935 0 0 0-.918-.918h-8.334ZM54.601 32.272H43.02a.935.935 0 0 0-.918.919v7.203c0 .495.423.919.918.919H54.6a.935.935 0 0 0 .918-.919V33.12c0-.495-.424-.848-.918-.848Zm-10.664 7.203v-5.438h9.816v5.438h-9.816Z" fill="#111" stroke="#111"/><path d="M58.627 60.592v2.401H24.163V17.3h34.464v25.919h2.19V11.79C60.816 8.613 58.202 6 55.024 6h-27.19c-3.178 0-5.791 2.613-5.791 5.792v57.417c0 3.178 2.612 5.791 5.79 5.791h27.19c3.179 0 5.792-2.613 5.792-5.791v-8.617h-2.189Zm-34.464-48.8a3.617 3.617 0 0 1 3.602-3.602h27.19a3.617 3.617 0 0 1 3.601 3.601v3.25H24.163v-3.25Zm34.464 57.416a3.617 3.617 0 0 1-3.602 3.602h-27.19a3.617 3.617 0 0 1-3.601-3.602v-4.025h34.464v4.025h-.071Z" fill="#111" stroke="#111"/><path d="M60.393 50.705h-1.271c-.212-.847-.495-1.554-.989-2.19l1.13-1.13a.536.536 0 0 0 .142-.282c0-.141-.07-.211-.142-.282l-1.483-1.483c-.142-.142-.424-.142-.636 0l-1.13 1.13c-.635-.424-1.342-.707-1.977-.918v-1.413a.456.456 0 0 0-.424-.423h-2.048a.456.456 0 0 0-.423.423v1.413c-.777.141-1.484.494-2.048.847l-1.2-1.2c-.142-.142-.424-.142-.636 0l-1.483 1.483a.537.537 0 0 0-.142.282c0 .07.07.212.142.282l1.2 1.2a9.17 9.17 0 0 0-.989 2.261h-1.342a.456.456 0 0 0-.423.424v2.047c0 .212.212.424.423.424h1.342c.142.777.495 1.484.848 2.048l-1.06 1.06s-.07.142-.07.212.07.212.14.282l1.484 1.484c.07.07.212.141.282.141.142 0 .212-.07.282-.141l1.06-1.06c.706.495 1.483.777 2.26.99v1.2c0 .212.212.423.423.423h2.048a.456.456 0 0 0 .424-.423v-1.271c.777-.283 1.484-.565 2.19-.99l.918.919c.07.07.212.141.282.141.07 0 .212-.07.282-.141l1.484-1.484a.536.536 0 0 0 .141-.282c0-.141-.07-.212-.141-.282l-.919-.918a5.735 5.735 0 0 0 .848-2.048h1.342a.456.456 0 0 0 .423-.424v-2.048c-.14-.07-.281-.283-.564-.283Zm-7.84 5.58c-2.26 0-4.166-1.837-4.166-4.167 0-2.26 1.836-4.167 4.167-4.167 2.26 0 4.166 1.836 4.166 4.167 0 2.4-1.906 4.166-4.166 4.166Z" fill="#111" stroke="#111"/></svg>