<svg width="25" height="24" fill="none" xmlns="http://www.w3.org/2000/svg"><path d="M18.795 18.87a.57.57 0 0 1-.404-.168l-3.997-3.996c-.224-.224-.152-.432.072-.655.224-.224.514-.378.738-.155l3.996 3.996a.572.572 0 0 1-.405.978Z" fill="#1F1F1F"/><path fill-rule="evenodd" clip-rule="evenodd" d="M14.876 13.931a.82.82 0 0 0-.315.213c-.107.106-.157.19-.168.257-.01.056.005.124.096.215l3.997 3.997a.442.442 0 0 0 .627 0 .443.443 0 0 0 0-.628l-3.996-3.996c-.074-.074-.152-.085-.241-.058Zm-.074-.247a.477.477 0 0 1 .497.123l3.996 3.996a.7.7 0 1 1-.992.992l-3.996-3.997c-.132-.132-.195-.28-.168-.44.025-.148.122-.28.24-.396a1.07 1.07 0 0 1 .423-.278Z" fill="#1F1F1F" stroke="#1F1F1F" stroke-width=".255"/><path d="M11.211 16.294a5.589 5.589 0 0 1-5.582-5.582 5.589 5.589 0 0 1 5.582-5.583 5.589 5.589 0 0 1 5.583 5.583 5.589 5.589 0 0 1-5.583 5.582Zm0-10.02a4.443 4.443 0 0 0-4.437 4.438 4.443 4.443 0 0 0 4.437 4.437 4.443 4.443 0 0 0 4.438-4.437 4.443 4.443 0 0 0-4.438-4.438Z" fill="#1F1F1F"/><path fill-rule="evenodd" clip-rule="evenodd" d="M11.211 5.258a5.46 5.46 0 0 0-5.453 5.453 5.46 5.46 0 0 0 5.453 5.454 5.46 5.46 0 0 0 5.454-5.454 5.46 5.46 0 0 0-5.454-5.453ZM5.5 10.71A5.718 5.718 0 0 1 11.211 5a5.718 5.718 0 0 1 5.712 5.711 5.718 5.718 0 0 1-5.712 5.712A5.718 5.718 0 0 1 5.5 10.71Zm1.145 0a4.571 4.571 0 0 1 4.566-4.566 4.571 4.571 0 0 1 4.566 4.566 4.572 4.572 0 0 1-4.566 4.566 4.571 4.571 0 0 1-4.566-4.566Zm4.566-4.308a4.314 4.314 0 0 0-4.308 4.308 4.314 4.314 0 0 0 4.308 4.309 4.314 4.314 0 0 0 4.309-4.309 4.314 4.314 0 0 0-4.309-4.308Z" fill="#1F1F1F" stroke="#1F1F1F" stroke-width=".255"/></svg>