<svg width="1200" height="402" fill="none" xmlns="http://www.w3.org/2000/svg"><mask id="a" style="mask-type:alpha" maskUnits="userSpaceOnUse" x="0" y="0" width="1200" height="402"><rect width="1200" height="402" rx="16" fill="#020738"/></mask><g mask="url(#a)"><circle cx="173" cy="407" r="59" stroke="#B1FF8C" stroke-width="12"/><circle cx="897" r="51" fill="#316AFF"/><path d="M105.167 67.5C102.5 64.833 90 63.167 90 63.167s12.667-2.167 15.333-5C108 55.5 109.833 43 109.833 43s2.5 12.333 5.167 15 15 4.833 15 4.833-12 2.334-14.667 5C112.667 70.5 110.167 83 110.167 83s-2.167-12.833-5-15.5Z" fill="#F2F2F2"/></g><path d="M1145.15 96.955c-18.69-3.738-61-9.419-86.11-5.83M1055 79.912c10.61-3.439 35.25-13.635 48.89-26.911" stroke="#fff" stroke-width="3.084" stroke-linecap="round"/><path d="m1134 295 11.5 11.5L1134 318l-11.5-11.5L1134 295Z" fill="#F481FE"/><path d="m275.5 263 11.5 11.5-11.5 11.5-11.5-11.5 11.5-11.5ZM980.1 129.2c-1.6-1.6-9.1-2.6-9.1-2.6s7.6-1.3 9.2-3c1.6-1.6 2.7-9.1 2.7-9.1s1.5 7.4 3.1 9c1.6 1.6 9 2.9 9 2.9s-7.2 1.4-8.8 3c-1.6 1.6-3.1 9.1-3.1 9.1s-1.3-7.7-3-9.3Z" fill="#F2F2F2"/></svg>