<svg width="1440" height="438" fill="none" xmlns="http://www.w3.org/2000/svg"><path d="M1264 106.047C1264 85.034 1280.83 68 1301.59 68v76.095c-20.76 0-37.59-17.035-37.59-38.048Z" fill="#F580FF"/><circle cx="1358" cy="241" r="14" fill="#316AFF"/><circle cx="90.5" cy="224.5" r="6.5" fill="#F580FF"/><path d="M241.047 280c21.013 0 38.048 16.829 38.048 37.589H203c0-20.76 17.034-37.589 38.047-37.589Z" fill="#B1FF8C"/><path fill-rule="evenodd" clip-rule="evenodd" d="M271.558 106.142c-37.96.403-48.813.665-69.874 1.689-21.827 1.061-37.447 2.124-62.231 4.237-5.746.49-11.897.954-19.11 1.443-26.493 1.797-31.648 2.276-40.213 3.734-4.243.722-7.913 1.222-9.97 1.359-1.828.121-2.16.197-2.16.496 0 .265 2.925.496 4.525.358.573-.049 2.126-.17 3.451-.267 1.325-.099 4.242-.362 6.48-.586 5.273-.527 7.805-.693 16.867-1.107 15.234-.696 26.742-1.365 40.878-2.375l15.37-1.1c24.608-1.76 54.665-3.329 73.032-3.813 22.289-.587 91.482-1.106 90.313-.678-.463.17-8.38 1.434-13.127 2.096-4.36.608-11.644 1.484-20.605 2.48-4.25.472-10.083 1.125-12.961 1.452-10.816 1.227-14.378 1.608-20.522 2.193-28.308 2.697-47.006 5.047-73.032 9.178-15.47 2.456-28.149 5.275-42.299 9.404-8.045 2.348-8.829 2.765-8.037 4.277.515.983 4.574 1.111 12.762.4 14.962-1.298 29.022-2.304 42.642-3.053 8.544-.47 9.675-.548 18.362-1.277 3.244-.272 8.853-.67 12.463-.884l6.563-.389-8.724-.153c-13.219-.233-27.4-.218-32.07.032-15.462.828-23.872 1.466-37.609 2.851-3.274.33-6.036.571-6.138.537-.984-.335 21.035-5.398 31.539-7.252 23.712-4.185 48.13-7.308 85.655-10.955 3.427-.333 10.306-1.061 15.287-1.618 4.981-.558 12.833-1.435 17.448-1.951 17.765-1.984 23.057-2.723 40.13-5.602 10.935-1.845 10.993-1.861 11.291-3.074.328-1.333-.548-1.938-3.058-2.111-2.384-.165-47.02-.144-63.318.029Zm-49.724 29.132c.206.041.505.04.664-.003.159-.042-.01-.076-.376-.074-.365.002-.495.037-.288.077Z" fill="#fff"/><circle cx="1051" cy="361" r="3" fill="#B1FF8C"/><path d="M1321.15 328c-18.69 3.738-61 9.419-86.11 5.831M1231 345.043c10.61 3.439 35.25 13.636 48.89 26.912" stroke="#fff" stroke-width="4" stroke-linecap="round"/></svg>